<svg width="527" height="153" viewBox="0 0 527 153" fill="none" xmlns="http://www.w3.org/2000/svg">
<g filter="url(#filter0_d_94_5329)">
<circle cx="76.5" cy="72.5" r="72.5" fill="#F5F5F5"/>
</g>
<path d="M86.3318 131.024C78.726 131.024 71.7347 129.257 65.3581 125.723C59.0583 122.188 54.0262 117.272 50.2616 110.972C46.5739 104.595 44.7301 97.4502 44.7301 89.5371C44.7301 81.6239 46.5739 74.5174 50.2616 68.2176C54.0262 61.9178 59.0583 57.0009 65.3581 53.4669C71.7347 49.9329 78.726 48.1658 86.3318 48.1658C93.9377 48.1658 100.891 49.9329 107.19 53.4669C113.567 57.0009 118.561 61.9178 122.172 68.2176C125.859 74.5174 127.703 81.6239 127.703 89.5371C127.703 97.4502 125.859 104.595 122.172 110.972C118.484 117.272 113.49 122.188 107.19 125.723C100.891 129.257 93.9377 131.024 86.3318 131.024ZM86.3318 113.046C92.7853 113.046 97.9327 110.895 101.774 106.593C105.692 102.29 107.651 96.6052 107.651 89.5371C107.651 82.3922 105.692 76.707 101.774 72.4815C97.9327 68.1792 92.7853 66.0281 86.3318 66.0281C79.8016 66.0281 74.5773 68.1408 70.6592 72.3663C66.8178 76.5918 64.8971 82.3154 64.8971 89.5371C64.8971 96.682 66.8178 102.406 70.6592 106.708C74.5773 110.933 79.8016 113.046 86.3318 113.046Z" fill="#F2B203"/>
<g clip-path="url(#clip0_94_5329)">
<path d="M50.0708 90.4056C43.1781 90.5527 36.6046 89.3352 30.6843 85.6575C25.2046 82.2537 24.131 78.0382 27.276 72.2654C30.2437 66.8224 34.5383 62.4649 39.628 59.0611C44.0999 56.0681 48.8503 53.4709 53.6209 50.9599C55.3884 50.0316 56.0569 49.0525 56.0265 47.0894C55.9404 41.2709 55.6062 35.4017 56.224 29.6442C56.6342 25.8193 57.8649 21.756 59.8704 18.4993C63.8814 11.9808 71.0576 12.0011 75.3016 18.3319C79.343 24.3533 83.0096 30.6333 86.656 36.9083C87.5929 38.5215 88.3019 39.0947 90.1656 38.4758C94.9666 36.883 99.798 35.3358 104.695 34.0879C109.82 32.7842 114.89 32.9719 119.62 35.838C125.419 39.3534 127.039 45.4356 123.661 51.3555C119.954 57.8639 114.652 62.9519 108.823 67.4463C93.0675 79.5956 75.2104 86.9257 55.6365 90.1266C53.8184 90.4259 51.9345 90.3194 50.0809 90.4056H50.0708Z" fill="#F2B203"/>
</g>
<g clip-path="url(#clip1_94_5329)">
<path d="M85.8082 104.907L86.0713 97.0101C86.1624 94.275 88.3049 92.1266 90.8566 92.2116C93.4082 92.2966 95.4029 94.5829 95.3118 97.318L95.1423 102.404" fill="#EC45FF"/>
<path d="M85.5557 106.37C84.0256 106.319 82.508 106.071 81.0301 105.631C79.5404 105.186 78.0798 104.543 76.6886 103.719C75.0417 102.743 73.4535 101.478 72.2165 100.157L73.5875 98.6828C74.8639 100.046 79.5731 104.479 86.5759 104.297C92.3778 104.147 96.4509 100.89 97.9328 99.4962L99.2071 101.055C97.9739 102.214 96.5211 103.262 95.0057 104.085C92.3471 105.528 89.5237 106.298 86.6138 106.374C86.2607 106.383 85.9078 106.382 85.5557 106.37L85.5557 106.37Z" fill="black"/>
<path d="M101.072 101.934C100.047 101.9 99.0857 101.468 98.3419 100.704C97.5427 99.8824 97.0912 98.7752 97.0707 97.586C97.0501 96.3969 97.4629 95.2681 98.2331 94.4077C98.6044 93.9928 99.2178 93.9777 99.6031 94.3736C99.9885 94.7697 99.9999 95.4271 99.6286 95.8418C98.7802 96.7895 98.8062 98.2968 99.6866 99.2016C100.567 100.106 101.973 100.072 102.822 99.1239C103.193 98.709 103.807 98.6937 104.192 99.0898C104.577 99.4859 104.588 100.143 104.217 100.558C103.447 101.418 102.412 101.907 101.302 101.935C101.225 101.937 101.148 101.936 101.072 101.934L101.072 101.934Z" fill="black"/>
<path d="M71.458 101.518C71.2535 101.511 71.0483 101.488 70.8434 101.449C69.752 101.238 68.8043 100.584 68.1749 99.6076C67.8714 99.1367 67.9829 98.4895 68.4236 98.1622C68.8644 97.8349 69.4678 97.9512 69.7711 98.4221C70.1069 98.9432 70.6126 99.2921 71.1951 99.4044C71.7775 99.5167 72.3669 99.3791 72.8549 99.0168C73.8619 98.2688 74.1172 96.785 73.424 95.7092C73.1205 95.2383 73.2319 94.5911 73.6727 94.2638C74.1135 93.9363 74.7169 94.0528 75.0202 94.5236C75.6495 95.5003 75.8851 96.683 75.6836 97.8537C75.4821 99.0244 74.8677 100.043 73.9535 100.722C73.211 101.274 72.3427 101.547 71.4579 101.518L71.458 101.518Z" fill="black"/>
<path d="M85.7732 105.946C85.6453 105.941 85.5163 105.91 85.3933 105.848C84.9098 105.605 84.7035 104.986 84.9328 104.467C85.6056 102.942 86.194 101.195 85.3744 98.105C85.202 97.455 85.1462 96.7851 85.2085 96.1143C85.2714 95.4368 85.452 94.7892 85.7453 94.1895C86.3807 92.8902 87.479 91.9558 88.9217 91.4874C89.9516 91.1531 90.7981 91.1706 90.8912 91.1737C91.6452 91.1988 92.3719 91.3817 93.0511 91.7173C93.7066 92.0412 94.2898 92.4929 94.7844 93.0598C95.279 93.6267 95.6604 94.2807 95.9182 95.0035C96.1852 95.7525 96.3071 96.5419 96.2802 97.3502L96.1107 102.436C96.0916 103.01 95.6425 103.46 95.1078 103.442C94.573 103.424 94.1549 102.945 94.174 102.372L94.3435 97.2858C94.4154 95.1285 92.8374 93.3186 90.8254 93.2497C90.794 93.2493 90.1602 93.2429 89.4241 93.4921C88.5064 93.8027 87.8459 94.3595 87.4608 95.1471C87.1038 95.8772 87.0249 96.7229 87.2385 97.5286C87.6775 99.1838 87.8104 100.665 87.6447 102.056C87.4846 103.401 87.069 104.475 86.6838 105.348C86.5129 105.735 86.1481 105.958 85.7732 105.946Z" fill="black"/>
<path d="M90.485 104.612C90.4133 104.609 90.3408 104.592 90.2713 104.56C89.9792 104.422 89.8476 104.057 89.9771 103.743C91.1797 100.832 91.3132 98.4876 90.3741 96.7743C90.3522 96.7342 90.3331 96.6994 90.3159 96.6661C90.1617 96.3671 90.2635 95.9894 90.5433 95.8227C90.823 95.656 91.1749 95.7634 91.3292 96.0625C91.3391 96.0816 91.3545 96.1099 91.3724 96.1424C91.561 96.4866 92.003 97.2925 92.121 98.6486C92.2624 100.272 91.8968 102.153 91.0347 104.24C90.936 104.479 90.7142 104.619 90.4851 104.611L90.485 104.612Z" fill="black"/>
</g>
<g clip-path="url(#clip2_94_5329)">
<path d="M205.441 60.7061C204.428 60.2118 203.73 59.6822 203.311 59.0467C202.892 58.4112 202.647 57.8463 202.612 57.3167C202.542 56.7871 202.542 56.4694 202.542 56.3281C202.542 56.0457 202.438 55.5867 202.263 54.9159C202.053 54.2804 201.495 53.9273 200.552 53.9273C198.98 53.9273 197.618 54.4216 196.396 55.3749C195.208 56.3281 194.545 57.7404 194.44 59.6116C194.335 61.4829 194.789 63.0717 195.872 64.4486C196.919 65.7903 199.015 66.4964 202.158 66.567C203.73 66.567 205.371 66.7789 207.118 67.2378C208.864 67.6968 210.47 68.4029 212.007 69.3915C213.544 70.3801 214.766 71.7218 215.709 73.3812C216.617 75.0406 217.106 77.1237 217.106 79.5951C217.036 84.5733 215.744 88.4217 213.16 91.105C210.575 93.7883 206.314 95.1653 200.342 95.1653C196.361 95.1653 193.182 94.671 190.773 93.6824C188.363 92.6938 186.617 91.5287 185.534 90.1517C184.451 88.7748 183.858 87.5744 183.823 86.5152C183.753 85.456 183.823 84.3968 184.032 83.3729C184.242 82.349 184.8 81.4664 185.778 80.7602C186.756 80.0188 188.328 79.5598 190.528 79.4186C192.763 79.242 194.37 79.4186 195.313 79.9835C196.256 80.5131 196.85 81.1133 197.129 81.8194C197.373 82.4902 197.513 82.9139 197.513 83.0905C197.513 83.267 197.583 83.6554 197.723 84.3262C197.862 84.9617 198.142 85.5972 198.561 86.1974C198.98 86.7976 199.574 87.0801 200.377 87.0801C201.564 87.0801 202.542 86.5858 203.381 85.6325C204.219 84.6792 204.743 83.1258 204.987 80.9721C205.371 76.7353 203.276 74.6169 198.701 74.6169C197.583 74.6169 196.151 74.4404 194.37 74.052C192.589 73.6636 190.877 72.9928 189.131 72.0042C187.385 71.0156 185.953 69.6034 184.766 67.8027C183.508 66.0727 182.915 63.7072 182.984 60.7767C183.054 57.8463 183.578 55.4102 184.591 53.5389C185.604 51.6677 186.931 50.1848 188.572 49.1256C190.214 48.0664 192.03 47.325 194.021 46.866C196.011 46.407 197.967 46.1599 199.923 46.0892C202.542 46.0186 205.092 46.3364 207.502 47.0072C209.946 47.678 211.972 48.7019 213.614 50.1142C215.255 51.4911 216.198 53.2918 216.408 55.4808C216.582 57.1049 216.338 58.3406 215.709 59.1526C215.08 59.9647 214.277 60.5296 213.369 60.8474C212.461 61.1651 211.274 61.3417 209.807 61.4123C207.921 61.4123 206.454 61.1651 205.441 60.7061Z" fill="#751061"/>
<path d="M229.714 48.5254C229.958 47.8899 230.552 47.2544 231.53 46.6188C232.473 45.9833 234.045 45.6656 236.21 45.5949C238.166 45.5243 239.633 45.7715 240.645 46.3011C241.658 46.8307 242.531 47.6074 243.23 48.6313C244.452 51.5617 245.605 54.245 246.652 56.6459C247.7 59.0467 248.888 61.73 250.18 64.6605C251.472 67.5909 252.764 70.5919 254.091 73.593C255.419 76.594 256.641 79.4539 257.794 82.0666C258.946 84.6792 259.889 86.9035 260.692 88.6689C261.461 90.4342 261.985 91.564 262.194 92.023C262.683 93.0822 262.962 93.8589 263.032 94.3179C263.102 94.7769 263.067 95.0593 262.997 95.2006C262.928 95.3418 262.858 95.4477 262.858 95.483C262.473 96.2598 261.705 96.9659 260.553 97.5661C259.4 98.1663 258.038 98.4841 256.397 98.5547C254.161 98.6253 252.555 98.3782 251.542 97.8486C250.529 97.319 249.866 96.7894 249.586 96.2245C249.272 95.6949 249.167 95.4477 249.202 95.5183C248.015 92.9056 247.037 90.7166 246.268 88.8807C245.5 87.0448 244.767 85.3501 244.103 83.8319H236.559C236.35 84.6086 236.105 85.5972 235.896 86.7623C235.686 87.9274 235.407 89.4103 235.057 91.2109C234.568 92.5526 233.765 93.5765 232.717 94.2473C231.67 94.9181 229.889 95.2712 227.444 95.2712C225.593 95.2712 224.231 95.0593 223.288 94.6357C222.38 94.212 221.751 93.7177 221.437 93.1528C221.122 92.5879 220.983 91.8818 220.983 91.0344C221.087 90.4695 221.332 89.3044 221.681 87.5037C222.03 85.7384 222.484 83.5847 223.008 81.078C223.532 78.5712 224.091 75.8879 224.685 73.0634C225.278 70.2389 225.837 67.4497 226.396 64.6605C226.955 61.9065 227.444 59.3645 227.898 57.0696C228.352 54.7746 228.841 52.2679 229.4 49.4787C229.33 49.4787 229.434 49.1609 229.679 48.4901L229.714 48.5254ZM238.236 62.8951C238.166 63.107 238.131 63.566 238.061 64.2368L237.712 66.6023C237.607 67.9086 237.467 69.2856 237.293 70.7685C237.118 72.2513 236.943 73.6283 236.804 74.9346C236.699 75.6055 236.594 76.0291 236.559 76.2057H237.642C238.305 76.2057 239.039 76.2057 239.807 76.1351C240.576 76.0644 241.274 76.0644 241.903 76.0644C241.693 75.6055 241.484 75.0406 241.344 74.3344C241.204 73.6283 241.064 72.9575 240.89 72.3573C240.541 71.0509 240.191 69.7093 239.772 68.297C239.353 66.8848 238.969 65.5431 238.655 64.3074C238.48 63.6366 238.34 63.1776 238.236 62.9657V62.8951Z" fill="#751061"/>
<path d="M268.341 82.2078C268.201 79.7363 268.062 77.053 267.887 74.1932C267.712 71.3334 267.573 68.6148 267.433 65.9668C267.293 63.3541 267.188 61.1298 267.153 59.3645C267.084 57.5991 267.084 56.5399 267.084 56.1869C267.188 55.2336 267.293 54.4569 267.363 53.8567C267.433 53.2564 267.712 52.8681 268.166 52.6209C268.516 52.4444 268.585 52.2326 268.446 51.9501C268.306 51.6677 268.271 51.3146 268.376 50.8556C268.446 50.3966 269.004 49.9376 270.017 49.408C270.786 49.0197 272.043 48.4195 273.754 47.678C275.466 46.9013 277.526 46.3011 279.901 45.8421C282.311 45.3831 284.86 45.4184 287.619 45.9833C290.344 46.5129 293.138 47.8546 295.932 50.0082C297.818 51.4911 299.005 52.974 299.424 54.5275C299.843 56.081 299.843 57.5638 299.389 59.0114C298.935 60.459 298.306 61.7653 297.468 62.8951C296.63 64.0602 295.513 65.296 294.116 66.6729C295.687 67.2378 297.049 67.838 298.167 68.4382C299.319 69.0738 300.472 69.8858 301.659 70.945C302.847 72.0042 303.825 73.2752 304.628 74.7934C305.431 76.3116 305.885 78.1122 305.92 80.1247C306.025 83.5847 304.977 86.4092 302.777 88.5982C300.577 90.7872 297.538 92.4466 293.627 93.5411C289.75 94.6357 285.28 95.2006 280.25 95.2006C277.352 95.2006 275.116 94.9887 273.545 94.5297C271.973 94.0707 270.856 93.5411 270.192 92.9056C269.528 92.2701 269.074 91.5287 268.865 90.6107C268.69 87.4331 268.55 84.6086 268.411 82.1372L268.341 82.2078ZM279.936 54.1744C280.006 55.9397 280.041 57.3873 280.076 58.5877C280.076 59.7881 280.146 60.8473 280.25 61.8359C280.355 62.8245 280.425 63.4247 280.53 63.6719C280.634 63.8837 281.019 63.8484 281.717 63.4953C282.416 63.1423 283.114 62.648 283.848 61.9418C284.616 61.2357 285.21 60.4237 285.699 59.4704C286.188 58.5524 286.327 57.6344 286.153 56.7165C285.768 54.9158 284.965 53.8567 283.708 53.5742C282.486 53.2917 281.228 53.5036 279.936 54.1744ZM282.381 87.8921C283.952 87.8921 285.28 87.8215 286.397 87.645C287.515 87.4684 288.632 87.1154 289.715 86.5505C290.798 85.9856 291.671 85.1382 292.299 84.0437C292.928 82.9492 293.138 81.431 292.928 79.5245C292.719 77.6179 292.195 76.1704 291.391 75.2524C290.588 74.3344 289.645 73.6989 288.528 73.4165C287.41 73.134 286.362 73.0281 285.349 73.134C284.302 73.2046 283.114 73.4518 281.787 73.8401L282.381 87.8921Z" fill="#751061"/>
<path d="M308.784 53.7154C308.505 53.0446 308.4 52.4091 308.435 51.8442C308.505 51.2793 308.819 50.6791 309.413 50.0789C310.006 49.4433 311.019 48.8784 312.486 48.3841C314.442 47.6427 316.747 47.0425 319.401 46.5482C322.055 46.0539 324.884 45.948 327.853 46.1598C330.822 46.3717 333.79 47.2896 336.689 48.8784C338.435 49.7964 339.693 51.0674 340.531 52.7621C341.369 54.4569 341.858 56.2575 342.032 58.1994C342.207 60.1059 342.207 61.9418 342.067 63.7072C341.928 65.4725 341.613 67.4496 341.09 69.7093C340.321 71.404 339.378 72.7809 338.296 73.8048C337.213 74.864 335.641 75.6761 333.546 76.3116L345.455 89.2691C346.223 90.187 346.747 90.9638 346.992 91.5993C347.236 92.2348 347.201 92.9056 346.817 93.5411C346.468 94.1767 345.525 94.7416 344.023 95.2006C342.452 95.6595 341.09 95.7655 339.867 95.5536C338.68 95.3418 337.702 94.9534 336.933 94.4591C336.165 93.9648 335.397 93.2587 334.628 92.3407L323.557 78.5359L326.316 90.4695C326.526 91.4228 326.526 92.2348 326.316 92.835C326.107 93.4705 325.548 94.0001 324.64 94.4944C323.732 94.9887 322.335 95.2006 320.379 95.2006C318.423 95.2006 316.887 94.9887 315.804 94.5297C314.721 94.0707 313.953 93.5411 313.499 92.9056C313.045 92.2701 312.73 91.5287 312.591 90.6107L308.749 53.6801L308.784 53.7154ZM320.589 53.6448L322.614 70.6625C323.906 70.7685 324.989 70.7332 325.932 70.5919C326.84 70.4154 327.748 70.027 328.621 69.3562C329.494 68.7207 330.193 67.6968 330.752 66.3198C331.311 64.9429 331.52 63.0363 331.345 60.6002C331.171 58.27 330.717 56.5753 330.018 55.4808C329.285 54.3862 328.412 53.6801 327.329 53.3624C326.281 53.0446 325.164 52.974 323.976 53.1152C322.789 53.2564 321.671 53.433 320.624 53.6801L320.589 53.6448Z" fill="#751061"/>
<path d="M350.449 70.592C350.449 66.0727 351.218 61.9419 352.789 58.1641C354.361 54.4216 356.491 51.4205 359.146 49.1962C361.835 46.9719 364.804 45.8421 368.017 45.8421C370.427 45.8421 372.697 46.4776 374.897 47.7487C377.062 49.0197 379.018 50.785 380.694 53.0799C382.371 55.3749 383.698 58.0228 384.641 60.9886C385.584 63.9896 386.073 67.1672 386.073 70.5566C386.073 73.9461 385.584 77.1237 384.641 80.1247C383.698 83.1258 382.371 85.7737 380.694 88.0334C379.018 90.293 377.097 92.0936 374.897 93.3646C372.732 94.6357 370.427 95.2712 368.017 95.2712C364.769 95.2712 361.8 94.1414 359.146 91.9171C356.457 89.6928 354.326 86.6917 352.789 82.9845C351.218 79.242 350.449 75.1112 350.449 70.5213V70.592ZM363.267 70.2389C363.267 73.5224 363.476 76.5234 363.93 79.2774C364.385 82.0313 364.978 84.185 365.782 85.8091C366.55 87.4332 367.423 88.2099 368.366 88.2099C369.309 88.2099 370.182 87.3978 370.95 85.8091C371.719 84.185 372.347 82.0313 372.801 79.2774C373.255 76.5234 373.465 73.5224 373.465 70.2389C373.465 66.9554 373.255 63.8837 372.801 61.1651C372.347 58.4465 371.754 56.2928 370.95 54.6334C370.182 53.0093 369.309 52.162 368.366 52.162C367.423 52.162 366.55 52.974 365.782 54.6334C365.013 56.2575 364.385 58.4465 363.93 61.1651C363.476 63.8837 363.267 66.8848 363.267 70.2389Z" fill="#751061"/>
<path d="M412.721 60.7062C411.708 60.2119 411.009 59.6823 410.59 59.0468C410.171 58.4112 409.927 57.8463 409.892 57.3167C409.822 56.7871 409.822 56.4694 409.822 56.3282C409.822 56.0457 409.717 55.5867 409.542 54.9159C409.333 54.2804 408.774 53.9273 407.831 53.9273C406.259 53.9273 404.897 54.4216 403.675 55.3749C402.488 56.3282 401.824 57.7404 401.719 59.6117C401.614 61.4829 402.068 63.0717 403.151 64.4486C404.199 65.7903 406.294 66.4964 409.438 66.567C411.009 66.567 412.651 66.7789 414.397 67.2379C416.143 67.6968 417.75 68.403 419.286 69.3916C420.823 70.3801 422.046 71.7218 422.988 73.3812C423.897 75.0406 424.386 77.1237 424.386 79.5951C424.316 84.5733 423.023 88.4218 420.439 91.105C417.855 93.7883 413.594 95.1653 407.622 95.1653C403.64 95.1653 400.462 94.671 398.052 93.6824C395.642 92.6938 393.896 91.5287 392.813 90.1518C391.731 88.7748 391.137 87.5744 391.102 86.5152C391.032 85.456 391.102 84.3968 391.312 83.3729C391.521 82.349 392.08 81.4664 393.058 80.7602C394.036 80.0188 395.607 79.5598 397.808 79.4186C400.043 79.2421 401.649 79.4186 402.592 79.9835C403.535 80.5131 404.129 81.1133 404.408 81.8194C404.653 82.4903 404.793 82.9139 404.793 83.0905C404.793 83.267 404.862 83.6554 405.002 84.3262C405.142 84.9617 405.421 85.5972 405.84 86.1974C406.259 86.7977 406.853 87.0801 407.656 87.0801C408.844 87.0801 409.822 86.5858 410.66 85.6325C411.498 84.6793 412.022 83.1258 412.267 80.9721C412.651 76.7353 410.555 74.6169 405.98 74.6169C404.862 74.6169 403.431 74.4404 401.649 74.052C399.868 73.6636 398.157 72.9928 396.411 72.0042C394.664 71.0157 393.232 69.6034 392.045 67.8028C390.858 66.0021 390.299 63.6366 390.369 60.6708C390.438 57.7404 390.962 55.3043 391.975 53.433C392.988 51.5618 394.315 50.0789 395.957 49.0197C397.598 47.9605 399.414 47.2191 401.405 46.7601C403.396 46.3011 405.351 46.054 407.307 45.9833C409.927 45.9127 412.476 46.2305 414.886 46.9013C417.331 47.5721 419.356 48.596 420.998 50.0083C422.639 51.3852 423.582 53.1859 423.792 55.3749C423.966 56.999 423.722 58.2347 423.093 59.0468C422.465 59.8588 421.661 60.4237 420.753 60.7415C419.845 61.0592 418.658 61.2358 417.191 61.3064C415.305 61.3064 413.838 61.0592 412.825 60.6002L412.721 60.7062Z" fill="#751061"/>
<path d="M430.428 83.6906C430.358 80.7955 430.358 77.6532 430.358 74.3344C430.358 71.0156 430.393 67.7674 430.497 64.6251C430.567 61.4829 430.672 58.6936 430.777 56.2928C430.882 53.8567 430.986 52.1266 431.126 51.0321C431.301 49.6905 431.755 48.6313 432.558 47.9252C433.361 47.219 434.234 46.7247 435.212 46.4423C436.19 46.1598 437.378 45.9833 438.775 45.948C440.172 46.1245 441.289 46.3011 442.127 46.5482C442.966 46.76 443.559 47.1837 443.874 47.7486C444.607 48.8784 444.956 49.9729 444.921 50.9968C444.921 52.056 444.817 53.3977 444.712 55.0218C444.363 59.2585 444.188 63.4247 444.118 67.485C444.048 71.5452 444.048 75.2524 444.118 78.5712C444.188 81.89 444.293 85.5619 444.467 89.5162C444.397 90.7166 444.223 91.6699 443.874 92.4113C443.524 93.1528 442.896 93.8236 441.953 94.3885C441.01 94.9534 439.613 95.2712 437.762 95.2712C435.911 95.2712 434.514 95.0593 433.536 94.6356C432.558 94.212 431.894 93.7177 431.51 93.1175C431.161 92.5173 430.916 91.8111 430.812 90.9638C430.637 89.0572 430.532 86.6211 430.462 83.7259L430.428 83.6906Z" fill="#751061"/>
<path d="M459.765 55.1983C458.437 55.1983 457.04 55.163 455.643 54.9865C454.246 54.81 453.059 54.4922 452.046 53.9979C451.033 53.5036 450.474 52.7975 450.37 51.8442C450.3 50.8909 450.614 50.1142 451.243 49.5493C451.871 48.9844 452.64 48.5607 453.548 48.243C454.456 47.9252 455.573 47.678 456.97 47.5368L480.475 45.3125C482.047 45.2419 483.339 45.3125 484.387 45.3831C485.434 45.489 486.342 45.7715 487.181 46.1952C488.019 46.6189 488.473 47.2897 488.508 48.1723C488.613 49.0903 488.368 49.8317 487.704 50.432C487.041 51.0322 486.307 51.4911 485.399 51.8795C484.491 52.2326 483.374 52.5857 482.047 52.8681L476.668 53.7155C476.878 55.1277 477.157 57.1049 477.437 59.6823C477.716 62.2596 477.995 65.0841 478.275 68.1911C478.554 71.2981 478.799 74.3344 479.043 77.3355C479.288 80.3366 479.462 83.0198 479.602 85.3854C479.742 87.7509 479.811 89.4456 479.811 90.4695C479.811 91.7759 479.462 92.7291 478.764 93.4C478.065 94.0355 477.262 94.4945 476.319 94.7416C475.411 94.9887 474.223 95.1653 472.826 95.2006C471.36 95.13 470.172 94.9181 469.264 94.5298C468.356 94.1414 467.518 93.4 466.819 92.3408C466.121 91.2816 465.772 89.6575 465.772 87.5038C465.772 85.5972 465.667 83.2317 465.492 80.4778C465.283 77.7239 465.073 74.8287 464.794 71.863C464.514 68.8972 464.235 66.1433 463.921 63.6013C463.606 61.0592 463.257 58.1641 462.873 54.9512C462.139 55.0571 461.127 55.1277 459.765 55.163V55.1983Z" fill="#751061"/>
<path d="M490.603 70.592C490.603 66.0727 491.371 61.9419 492.943 58.1641C494.515 54.4216 496.645 51.4205 499.299 49.1962C501.989 46.9719 504.957 45.8421 508.17 45.8421C510.58 45.8421 512.85 46.4776 515.051 47.7487C517.216 49.0197 519.172 50.785 520.848 53.0799C522.525 55.3749 523.852 58.0228 524.795 60.9886C525.738 63.9896 526.227 67.1672 526.227 70.5566C526.227 73.9461 525.738 77.1237 524.795 80.1247C523.852 83.1258 522.525 85.7737 520.848 88.0334C519.172 90.293 517.251 92.0936 515.051 93.3646C512.885 94.6357 510.58 95.2712 508.17 95.2712C504.922 95.2712 501.954 94.1414 499.299 91.9171C496.61 89.6928 494.48 86.6917 492.943 82.9845C491.371 79.242 490.603 75.1112 490.603 70.5213V70.592ZM503.421 70.2389C503.421 73.5224 503.63 76.5234 504.084 79.2774C504.538 82.0313 505.132 84.185 505.935 85.8091C506.704 87.4332 507.577 88.2099 508.52 88.2099C509.463 88.2099 510.336 87.3978 511.104 85.8091C511.872 84.185 512.501 82.0313 512.955 79.2774C513.409 76.5234 513.619 73.5224 513.619 70.2389C513.619 66.9554 513.409 63.8837 512.955 61.1651C512.501 58.4465 511.907 56.2928 511.104 54.6334C510.336 53.0093 509.463 52.162 508.52 52.162C507.577 52.162 506.704 52.974 505.935 54.6334C505.167 56.2575 504.538 58.4465 504.084 61.1651C503.63 63.8837 503.421 66.8848 503.421 70.2389Z" fill="#751061"/>
</g>
<defs>
<filter id="filter0_d_94_5329" x="0" y="0" width="153" height="153" filterUnits="userSpaceOnUse" color-interpolation-filters="sRGB">
<feFlood flood-opacity="0" result="BackgroundImageFix"/>
<feColorMatrix in="SourceAlpha" type="matrix" values="0 0 0 0 0 0 0 0 0 0 0 0 0 0 0 0 0 0 127 0" result="hardAlpha"/>
<feOffset dy="4"/>
<feGaussianBlur stdDeviation="2"/>
<feComposite in2="hardAlpha" operator="out"/>
<feColorMatrix type="matrix" values="0 0 0 0 0 0 0 0 0 0 0 0 0 0 0 0 0 0 0.25 0"/>
<feBlend mode="normal" in2="BackgroundImageFix" result="effect1_dropShadow_94_5329"/>
<feBlend mode="normal" in="SourceGraphic" in2="effect1_dropShadow_94_5329" result="shape"/>
</filter>
<clipPath id="clip0_94_5329">
<rect width="99.8749" height="76.8268" fill="white" transform="translate(25.5234 13.5938)"/>
</clipPath>
<clipPath id="clip1_94_5329">
<rect width="36.4927" height="15.3654" fill="white" transform="translate(68.2899 90.4206) rotate(1.90843)"/>
</clipPath>
<clipPath id="clip2_94_5329">
<rect width="343.242" height="53.2422" fill="white" transform="translate(182.984 45.3125)"/>
</clipPath>
</defs>
</svg>
